<svg viewBox="0 0 165 165" xmlns="http://www.w3.org/2000/svg" fill-rule="evenodd" clip-rule="evenodd" stroke-linejoin="round" stroke-miterlimit="1.414"><path d="M82.436 15.996c.275.399 1.024 3.858 1.353 3.753l2.106 1.951.301-.3-.301-1.051c.988.005.881 0 1.655-.15.648 1.352 1.174 2.717 1.955 3.903 1.27.072 1.971-.059 3.009.6l.601 2.852c1.756-.48 2.077-.316 4.212-.45.088 1.111.196.416.752 1.051-1.07.537.133 3.002-.15 3.302-.338.391-.171.098-.602.3l.301 1.051c4.152-.294 4.052.382 5.716-3.303.669.219.491-.324.752.601.29.209.09.015.301.3-1.081.389-.548 1.311-.752 2.402l.903.3v1.651c1.671-.317 2.967 1.051 4.212 1.651.058.526-.029.777.3 1.201l.752-.3c.018.736.012 1.201.452 1.501.913.285 3.489-1.276 3.46 0l.3.15c.757-.107 1.5.409 2.106.6.199-.417 2.983-1.469 3.61-.15.54.239 2.078 2.882 3.009 4.203.765-.379.701-.654 1.805-.75.583.376.537.6.903.9.864-.154 3.459-.45 3.459-.45 2.821.557 6.052 1.378 8.123 3.002v.15c-.407.407-.711.493-.602.75.051.358-.026.124.151.601-4.482 1.25-4.402 12.732-5.415 16.211-.355 1.219 1.056 2.167.3 4.053-.927-.084-.646.177-1.052.75-.493.092-1.829.373-1.806 0l.151-.75c-.344-.229-.183-.274-.602-.15-.456.082-1.607.365-2.106.45.056.735-.241 1.138-.451 1.801.657.02.851.062 1.203.3-1.378 1.951-2.793 3.861-3.76 5.554h-1.204c-.422 1.089-.51 3.322-.752 3.603-.92 1.068-2.944 1.511-2.858 2.701-.04.66-.786 1.336-.451 2.402.192.611.713.154.752 1.651-.972.467-1.889 1.246-1.655 2.552h.452c.283-.725 2.54-.473 3.459-2.252-.572-.06-.187.169-.601-.15l-.151-1.651c1.146-.569 2.894-1.625 4.814-1.05-.022 1.645.036 4.3.602 4.953.348 1.084 2.075.843 2.256 3.002-1.15.4-1.58.806-2.256 1.651v.901c1.929 1.395 2.498 4.014 4.663 4.803-.18.465-.42 1.956-.753 2.402-.088-.011-4.944 1.643-5.114 2.401.245 1.877 3.316 3.771 4.663 4.353l-.15.451c.3.907-1.249 2.316-1.504 3.602.268.246.601 3.002.601 3.002 2.933 3.143 4.511 1.357 8.574 2.252-.866 1.67-.311 2.499-1.805 3.302.221.8.484 1.708 0 1.951-.2 1.043-.927-.069-1.504.45-.28.218-.236.735-.451 1.501-.6-.148-1.913.147-1.655.751-.467.46-.289.947-.601 1.351-.544-.769-1.216.276-1.956.15.329 2.176-1.728 1.185-2.407 2.702-.396.276-.332.666-.451 1.351h.602c-.746 1.687-1.781 1.97-3.611 2.251l.151.901c-1.193-.491-1.053-.415-2.256-.45l-.151.15c.03 1.282.09.785-.451 1.201v-.301l-.301.151c.064-.616.004-.388-.15-.601v-.3c-.709.204-.771.001-1.505.3v.45c-.583-.129-.355.193-.752-.15-.397-.178-2.029-1.328-2.256-2.101-.873.205-.431.257-.903.6-.462-1.004-1.061-.166-2.406-.9.5-1.19.161-1.59-.753-1.952-.646.824-2.532.686-3.008.151l.15-.901c-.876-.046-.537-.526-1.203 0h-.451l.301 1.201h-.752l-2.708-.151v-1.35c-1.869.444-4.332-.179-4.964-.901v-1.051h-1.053c-.958 2.152-7.108 5.459-8.424 5.104-.072 1.304-1.354 2.103-2.106 3.452 0 0 .116 2.18 0 2.702-.349 1.57-.15 4.35.602 4.203.179.488.145.001.451.45-.212.659-.287.644.452 1.051l-.452.6c-.589-.411-1.996-.495-2.557-1.05-1.131.612-2.521.843-2.707 2.101l-.452-.601-.451.151c-.299.195-.354.22-.752.3l-.602-.3c-1.726-1.643-4.417.464-4.813-.151-1.538-.42-.77-2.284-2.858-2.251.163-.69.452-.845 0-1.351-1.032-.563-2.016-.657-3.009 0-.242-.411-.769-1.531-1.203-1.801-.385-.177-2.203-.366-2.407 0-1.386-1.32-2.887-1.056-4.212-1.801-.262-.148-.164-.268-.301 0l-.602 2.101-3.008-.3c.022.552.117.612-.451.9l.15-.3c-.427-.183-.485-.768-.902-1.05-.913 1.566-3.889.2-4.212-1.201-1.924.027-3.401-.121-4.814.15-.44-1.015-.696-1.268-1.203-2.552-2.411.571-5.815-.961-5.566-3.002l-.752.15c-.05.633.082.67-.451 1.051-.364-.343-.744-.249-1.204-.45.533-.857 1.515-1.833 1.053-3.152l-1.053-.301c-.56-.342-.557.212-.752.601-.991-.742-1.46-.417-2.106-1.051l-.3-1.051 2.707-1.651c1.891-2.261 3.089-12.336 4.062-16.361-.765-.232-.649-.404-.602-1.351.806-1.931 1.436-11.365 2.557-12.008.114-.544.141-.267.752-.751l.301.15-.15.15.15.601 2.557 3.452c.691 1.57-.134 2.538 1.354 4.503.565-.635.125-.547.903-.15v-.3l-.301-.45c-1.342.447-1.462-5.34-2.257-6.154-.199-.205-.51-.573-.3-.751-1.859-1.807-3.309-2.386-4.062-4.203l.602-.15c.435.327.369.239.752.45v-.45c-.593-.369-.24-.57-.602-1.051l.903-.3-.301-1.501.752.15v-.45c-.602-.804-1.548-2.079-1.805-3.152.698-.017 1.136-.637 1.655-.751l-.452-.9c-.453.184-.275.195-.752.15v.75c-1.172-.86-5.276-2.178-6.468-3.752l-.903-2.852c-.705-.964-1.627-1.255-1.955-2.702.705-.07 1.018-2.376 2.256-2.252-.217-.852-1.594-1.628-3.008-1.801.392-.268.242-.239.752-.15v-1.801h-.15l-.903.6c-.491-.705-1.615.024-2.557-.901.251-.099.501-.2.752-.3-.312-.923.122-1.027.451-2.251-.539-.268-.178.079-.451-.451.442-.086.287.134.602-.45-1.505.267-2.552-.271-3.911.15l-.452-.75 1.505.15.3-.901-.601-.45c-1.073.412-.87.77-2.106.9-.117-.638.251-.333-.451-.6-.242.233-.448.152-.301-.15h-.452c.183.964.055 1.222.602 1.801v.15c-1.742-.385-.38-2.161-1.504-2.852l-1.354-1.05c.469-.273-.123-.28-.301-.451v.901h-.601c-.9-2.178-2.799-1.109-4.513-3.603-.287.272-.417.507-.752.751l-1.053-.6-.602 1.35h-2.106l-.15-.6.601-.45c-.618-.908-.425-1.831-1.504-2.702l-2.106.15.151-.45c1.09-.475 2.592-.983 4.212-.601.197-.66.3-1.907-.602-1.651-.348-.578-.374-.334-.752-.6-.488.386-.353.393-1.053.6l-.151-1.2c.281-.34.274-.211.452-.751l.752.45 1.203-1.501-.301.15c-.806-.004-2.077.292-3.309.751l-.301-.751c.346-.935.246-1.613 0-2.401 2.012-.142 4.122-1.425 4.062-2.252.93.327.567.882 1.203 1.351.599-.691 1.978-.91 2.708-1.201l.3 1.201c.607-.061.589-.049.903-.3l.602-.751c.377.488 1.449.854 2.256.901.241-.405.051-.207.451-.45-.111-.804-.223-.441 0-1.051.41-.284.079-.039.301-.601.47.241.332.081.752.601l1.956-1.201c.035.671-.163.341.15.751l.602-.751h.602l-.301 1.201c.599-.209.827-.332.601.3l.903.15c-.175 1.52 1.339 2.268 1.655 4.053l2.557-1.201c-.112-.525-.143-.507.15-.9 1.247.542.768-.111 2.106 0-.188.627-.133.783.451 1.35l.602-.45c.501.006.594.099 1.203.3l-.15-.9 1.655-.751c-.113.875-.299.999.301 1.351.275.431 2.784.48 2.858.45.903-.238 1.317-.333 1.805-.9-.7-.059-1.094-.503-1.805-.901.162-2.278-.44-4.441.15-7.505-1.225-.384-.851-2.264-2.407-2.101.006-2.071-.504-3.202-.601-5.104l.451-.15c2.619 1.924 2.839.157 6.017.6l.301 1.502c-.411.194-.993.317-.903.75a3.344 3.344 0 0 0 1.203 2.102c-.493.627-.821.771-.3 1.35l.3-.45c.483.35-.084.256.602.45l.602-1.201c2.555.456 5.31 1.094 7.972 2.102 0 0 5.024-1.689 5.566-1.951-.05-.1-.1-.201-.151-.3-1.487.054-1.911-.003-2.557-.601 1.062-3.235 3.341-5.337 6.017-6.004.889-.222 3.863.011 4.062-.15 1.434-1.16 2.56-2.459 4.362-4.203l1.805.901v-.601c-.974-.369-1.337-1.557-1.805-1.351.467-1.609.375-3.14 1.053-4.353-1.199-.63-.501-3.104 0-4.653.657-.281.983-.57 1.805-1.201 1.224-.939 5.585-.535 6.92-1.651zM22.567 47.818h.301-.301zm16.396 1.951zm-2.708.901h.301-.301zm-28.881.15c.557.138.843.025 1.204.3l-.452.45-.752.151v-.901zm1.204 6.605c.2.1.401.199.601.3l-.3.3-.301-.6zm12.936 7.054l.301.301h-.451l.15-.301zm.602.15l.301.751h-.151l-.15-.3c-.191-.408-.133-.02 0-.451zm1.654 3.603h.602c.152.632.958 1.258 1.655 1.801l-.602.15c-.424-.293-1.163-.265-1.655-.6v-1.351zm2.858.3c.479.264.361-.166.602.601h-.451l-.151-.601zm6.168 5.554c.794.141.746-.034 1.203.6-.01.432.153.854.451 1.051l-.3.75c-.294-.368-.086-.06-.151-.45-.401-.263-.817-.904-1.203-1.2v-.751zm-.903 4.503l.752.3v.601c-.651-.141-.706-.205-1.053-.601h.301v-.3zm7.973 7.655c.391.09.527.007.902.3-.068.14.032.326.151.15.797.417.585.478 1.654.601v.901l-2.707-1.351v-.601zm1.203 3.002c1.36.785 2.148 1.671 1.805 3.453l-.301.15v-.301c-.767-.528-1.309-1.948-1.504-3.302zm113.871 42.779l.601.151c.219.75 1.015 3.879.301 4.953l1.203 1.351c.611.819.178 4.959.753 5.854l.15 1.201c-.492.874-1.073 1.335-1.504 2.251v1.952c.395 1.885-.5 2.541-1.354 3.752v.15l.301.15.602-.3c-.258.846-.757.526-1.053 1.051-.614 1.088-.028 1.562-.151 2.401-1.077-.428-1.108-.414-1.655-1.501-1.548.068-3.902-.999-3.158-2.101.089-.695.749-.193.902-1.201-.391-.064-.082.146-.451-.15-1.197.434-.819-.065-2.106-.3l.15-.45c.507-.045 1.087-1.166 1.354-2.402h-.752l-1.354.901c.006-.882-.331-.693.151-1.501l.752-1.201c-.489-.179-.002-.145-.452-.451-.522-.697-.773-.614-1.504-.45-.026-.848-.23-1.174 0-2.402.606-.132.824.315 1.053-.6l-.301.15-.601-1.051-.752.301v-.601c.601-.234 1.168-.66 1.353-1.051-.44-.346.176-.861.301-1.951l.903.601c.007-.6-.281-1.026.301-.751.465-.651 1.55-.728 2.406-.901.011-1.062.048-.95.752-1.501 1.034.119 1.465.297 2.106.451.21-.289.016-.09.301-.301-.228-1.361-.102-3.892.151-4.052l.301-.451zm-30.837 2.402c-.054.302-.009.234-.301.601l-.301-.151v-.15l.602-.3zm-1.354.45l.602.301h-.301v.3h-.452v-.3h.301l-.15-.301zm.752.151l.15.3-.15-.3zm-2.708.45h.903l-.301.45c-.424-.276-.403-.09-.602-.45zm26.776 10.957h.301-.301zm7.371 9.457h.3-.3z" fill="#c7b8a6"/><path d="M46 73S35 62.63 35 52s10.03-11 11-11c.97 0 11 .689 11 11S46.054 72.937 46 73zm0-28c3.863 0 7 3.137 7 7s-3.137 7-7 7-7-3.137-7-7 3.137-7 7-7z" fill="#716060"/></svg>